<?xml version="1.0" encoding="UTF-8" standalone="no" ?>
<!DOCTYPE svg PUBLIC "-//W3C//DTD SVG 1.1//EN" "http://www.w3.org/Graphics/SVG/1.1/DTD/svg11.dtd">
<svg xmlns="http://www.w3.org/2000/svg" xmlns:xlink="http://www.w3.org/1999/xlink" version="1.1" width="640" height="480" viewBox="0 0 640 480" xml:space="preserve">
<desc>Created with Fabric.js 3.6.3</desc>
<defs>
</defs>
<g transform="matrix(0.62 0 0 0.62 293.5 250.3)"  >
<g style=""   >
		<g transform="matrix(0.69 -0.72 0.72 0.69 157.8 -199.9)"  >
<rect style="stroke: none; stroke-width: 1; stroke-dasharray: none; stroke-linecap: butt; stroke-dashoffset: 0; stroke-linejoin: miter; stroke-miterlimit: 4; fill: rgb(230,230,230); fill-rule: nonzero; opacity: 1;"  x="-0.835" y="-54.6" rx="0" ry="0" width="1.67" height="109.2" />
</g>
		<g transform="matrix(1 0 0 1 193.64 -166.01)"  >
<polygon style="stroke: none; stroke-width: 1; stroke-dasharray: none; stroke-linecap: butt; stroke-dashoffset: 0; stroke-linejoin: miter; stroke-miterlimit: 4; fill: rgb(230,230,230); fill-rule: nonzero; opacity: 1;"  points="4.41,-5.01 2.74,-4.91 3.24,3.32 -5,3.22 -5.02,4.89 5.02,5.01 4.41,-5.01 " />
</g>
		<g transform="matrix(1 0 0 1 121.96 -233.78)"  >
<polygon style="stroke: none; stroke-width: 1; stroke-dasharray: none; stroke-linecap: butt; stroke-dashoffset: 0; stroke-linejoin: miter; stroke-miterlimit: 4; fill: rgb(230,230,230); fill-rule: nonzero; opacity: 1;"  points="5.02,-4.89 5,-3.22 -3.24,-3.32 -2.74,4.91 -4.41,5.01 -5.02,-5.01 5.02,-4.89 " />
</g>
		<g transform="matrix(1 0 0 1 157.8 -199.9)"  >
<circle style="stroke: none; stroke-width: 1; stroke-dasharray: none; stroke-linecap: butt; stroke-dashoffset: 0; stroke-linejoin: miter; stroke-miterlimit: 4; fill: rgb(230,230,230); fill-rule: nonzero; opacity: 1;"  cx="0" cy="0" r="9.19286" />
</g>
		<g transform="matrix(0.72 -0.69 0.69 0.72 -156.12 -199.89)"  >
<rect style="stroke: none; stroke-width: 1; stroke-dasharray: none; stroke-linecap: butt; stroke-dashoffset: 0; stroke-linejoin: miter; stroke-miterlimit: 4; fill: rgb(230,230,230); fill-rule: nonzero; opacity: 1;"  x="-54.6" y="-0.835" rx="0" ry="0" width="109.2" height="1.67" />
</g>
		<g transform="matrix(1 0 0 1 -191.97 -166.01)"  >
<polygon style="stroke: none; stroke-width: 1; stroke-dasharray: none; stroke-linecap: butt; stroke-dashoffset: 0; stroke-linejoin: miter; stroke-miterlimit: 4; fill: rgb(230,230,230); fill-rule: nonzero; opacity: 1;"  points="-5.02,5.01 5.02,4.89 5,3.22 -3.24,3.32 -2.74,-4.91 -4.41,-5.01 -5.02,5.01 " />
</g>
		<g transform="matrix(1 0 0 1 -120.29 -233.78)"  >
<polygon style="stroke: none; stroke-width: 1; stroke-dasharray: none; stroke-linecap: butt; stroke-dashoffset: 0; stroke-linejoin: miter; stroke-miterlimit: 4; fill: rgb(230,230,230); fill-rule: nonzero; opacity: 1;"  points="5.02,-5.01 4.41,5.01 2.74,4.91 3.24,-3.32 -5,-3.22 -5.02,-4.89 5.02,-5.01 " />
</g>
		<g transform="matrix(1 0 0 1 -156.13 -199.9)"  >
<circle style="stroke: none; stroke-width: 1; stroke-dasharray: none; stroke-linecap: butt; stroke-dashoffset: 0; stroke-linejoin: miter; stroke-miterlimit: 4; fill: rgb(230,230,230); fill-rule: nonzero; opacity: 1;"  cx="0" cy="0" r="9.19286" />
</g>
		<g transform="matrix(1 0 0 1 0 -219.73)"  >
<path style="stroke: none; stroke-width: 1; stroke-dasharray: none; stroke-linecap: butt; stroke-dashoffset: 0; stroke-linejoin: miter; stroke-miterlimit: 4; fill: rgb(63,61,86); fill-rule: nonzero; opacity: 1;"  transform=" translate(-600, -230.27)" d="M 669.36429 325.54286 H 530.63571 a 7.53 7.53 0 0 1 -7.52142 -7.52143 v -175.5 A 7.53 7.53 0 0 1 530.63571 135 H 669.36429 a 7.53 7.53 0 0 1 7.52142 7.52143 v 175.5 A 7.53 7.53 0 0 1 669.36429 325.54286 Z M 530.63571 136.67143 a 5.85658 5.85658 0 0 0 -5.85 5.85 v 175.5 a 5.85658 5.85658 0 0 0 5.85 5.85 H 669.36429 a 5.85658 5.85658 0 0 0 5.85 -5.85 v -175.5 a 5.85658 5.85658 0 0 0 -5.85 -5.85 Z" stroke-linecap="round" />
</g>
		<g transform="matrix(1 0 0 1 -26.81 -252.42)"  >
<path style="stroke: none; stroke-width: 1; stroke-dasharray: none; stroke-linecap: butt; stroke-dashoffset: 0; stroke-linejoin: miter; stroke-miterlimit: 4; fill: rgb(108,99,255); fill-rule: nonzero; opacity: 1;"  transform=" translate(-573.19, -197.58)" d="M 588.45985 219.35842 h -30.537 a 3.76488 3.76488 0 0 1 -3.76071 -3.76071 V 179.562 a 3.76488 3.76488 0 0 1 3.76071 -3.76071 h 30.537 a 3.76489 3.76489 0 0 1 3.76072 3.76071 v 36.03569 A 3.76489 3.76489 0 0 1 588.45985 219.35842 Z" stroke-linecap="round" />
</g>
		<g transform="matrix(1 0 0 1 32.53 -235.7)"  >
<path style="stroke: none; stroke-width: 1; stroke-dasharray: none; stroke-linecap: butt; stroke-dashoffset: 0; stroke-linejoin: miter; stroke-miterlimit: 4; fill: rgb(204,204,204); fill-rule: nonzero; opacity: 1;"  transform=" translate(-632.53, -214.29)" d="M 647.79557 236.07271 h -30.537 a 3.7649 3.7649 0 0 1 -3.76072 -3.76071 V 196.27631 a 3.7649 3.7649 0 0 1 3.76072 -3.76072 h 30.537 a 3.76489 3.76489 0 0 1 3.76071 3.76072 V 232.312 A 3.76489 3.76489 0 0 1 647.79557 236.07271 Z" stroke-linecap="round" />
</g>
		<g transform="matrix(1 0 0 1 -15.11 -184.73)"  >
<path style="stroke: none; stroke-width: 1; stroke-dasharray: none; stroke-linecap: butt; stroke-dashoffset: 0; stroke-linejoin: miter; stroke-miterlimit: 4; fill: rgb(255,101,132); fill-rule: nonzero; opacity: 1;"  transform=" translate(-584.89, -265.27)" d="M 600.15985 287.05128 h -30.537 a 3.76488 3.76488 0 0 1 -3.76071 -3.76071 V 247.25488 a 3.76489 3.76489 0 0 1 3.76071 -3.76072 h 30.537 a 3.7649 3.7649 0 0 1 3.76072 3.76072 v 36.03569 A 3.76489 3.76489 0 0 1 600.15985 287.05128 Z" stroke-linecap="round" />
</g>
		<g transform="matrix(1 0 0 1 223.92 -39.27)"  >
<path style="stroke: none; stroke-width: 1; stroke-dasharray: none; stroke-linecap: butt; stroke-dashoffset: 0; stroke-linejoin: miter; stroke-miterlimit: 4; fill: rgb(63,61,86); fill-rule: nonzero; opacity: 1;"  transform=" translate(-823.91, -410.73)" d="M 893.27857 506 H 754.55 a 7.53005 7.53005 0 0 1 -7.52143 -7.52143 v -175.5 a 7.53005 7.53005 0 0 1 7.52143 -7.52143 H 893.27857 A 7.53 7.53 0 0 1 900.8 322.97857 v 175.5 A 7.53 7.53 0 0 1 893.27857 506 Z M 754.55 317.12857 a 5.85658 5.85658 0 0 0 -5.85 5.85 v 175.5 a 5.85658 5.85658 0 0 0 5.85 5.85 H 893.27857 a 5.85658 5.85658 0 0 0 5.85 -5.85 v -175.5 a 5.85658 5.85658 0 0 0 -5.85 -5.85 Z" stroke-linecap="round" />
</g>
		<g transform="matrix(1 0 0 1 223.91 -99.03)"  >
<path style="stroke: none; stroke-width: 1; stroke-dasharray: none; stroke-linecap: butt; stroke-dashoffset: 0; stroke-linejoin: miter; stroke-miterlimit: 4; fill: rgb(108,99,255); fill-rule: nonzero; opacity: 1;"  transform=" translate(-823.91, -350.98)" d="M 847.73214 354.31786 H 800.09643 a 3.34286 3.34286 0 0 1 0 -6.68572 h 47.63571 a 3.34286 3.34286 0 0 1 0 6.68572 Z" stroke-linecap="round" />
</g>
		<g transform="matrix(1 0 0 1 223.92 -67.27)"  >
<path style="stroke: none; stroke-width: 1; stroke-dasharray: none; stroke-linecap: butt; stroke-dashoffset: 0; stroke-linejoin: miter; stroke-miterlimit: 4; fill: rgb(204,204,204); fill-rule: nonzero; opacity: 1;"  transform=" translate(-823.91, -382.73)" d="M 871.13214 386.075 H 776.69643 a 3.34286 3.34286 0 1 1 0 -6.68571 h 94.43571 a 3.34286 3.34286 0 1 1 0 6.68571 Z" stroke-linecap="round" />
</g>
		<g transform="matrix(1 0 0 1 223.92 -49.72)"  >
<path style="stroke: none; stroke-width: 1; stroke-dasharray: none; stroke-linecap: butt; stroke-dashoffset: 0; stroke-linejoin: miter; stroke-miterlimit: 4; fill: rgb(204,204,204); fill-rule: nonzero; opacity: 1;"  transform=" translate(-823.91, -400.28)" d="M 871.13214 403.625 H 776.69643 a 3.34286 3.34286 0 1 1 0 -6.68571 h 94.43571 a 3.34286 3.34286 0 1 1 0 6.68571 Z" stroke-linecap="round" />
</g>
		<g transform="matrix(1 0 0 1 223.92 -32.17)"  >
<path style="stroke: none; stroke-width: 1; stroke-dasharray: none; stroke-linecap: butt; stroke-dashoffset: 0; stroke-linejoin: miter; stroke-miterlimit: 4; fill: rgb(204,204,204); fill-rule: nonzero; opacity: 1;"  transform=" translate(-823.91, -417.83)" d="M 871.13214 421.175 H 776.69643 a 3.34286 3.34286 0 1 1 0 -6.68571 h 94.43571 a 3.34286 3.34286 0 1 1 0 6.68571 Z" stroke-linecap="round" />
</g>
		<g transform="matrix(1 0 0 1 223.92 -14.62)"  >
<path style="stroke: none; stroke-width: 1; stroke-dasharray: none; stroke-linecap: butt; stroke-dashoffset: 0; stroke-linejoin: miter; stroke-miterlimit: 4; fill: rgb(204,204,204); fill-rule: nonzero; opacity: 1;"  transform=" translate(-823.91, -435.38)" d="M 871.13214 438.725 H 776.69643 a 3.34286 3.34286 0 1 1 0 -6.68571 h 94.43571 a 3.34286 3.34286 0 1 1 0 6.68571 Z" stroke-linecap="round" />
</g>
		<g transform="matrix(1 0 0 1 223.92 2.93)"  >
<path style="stroke: none; stroke-width: 1; stroke-dasharray: none; stroke-linecap: butt; stroke-dashoffset: 0; stroke-linejoin: miter; stroke-miterlimit: 4; fill: rgb(204,204,204); fill-rule: nonzero; opacity: 1;"  transform=" translate(-823.91, -452.93)" d="M 871.13214 456.275 H 776.69643 a 3.34286 3.34286 0 1 1 0 -6.68571 h 94.43571 a 3.34286 3.34286 0 1 1 0 6.68571 Z" stroke-linecap="round" />
</g>
		<g transform="matrix(1 0 0 1 223.92 20.48)"  >
<path style="stroke: none; stroke-width: 1; stroke-dasharray: none; stroke-linecap: butt; stroke-dashoffset: 0; stroke-linejoin: miter; stroke-miterlimit: 4; fill: rgb(204,204,204); fill-rule: nonzero; opacity: 1;"  transform=" translate(-823.91, -470.48)" d="M 871.13214 473.825 H 776.69643 a 3.34286 3.34286 0 1 1 0 -6.68571 h 94.43571 a 3.34286 3.34286 0 1 1 0 6.68571 Z" stroke-linecap="round" />
</g>
		<g transform="matrix(1 0 0 1 -223.91 -39.27)"  >
<path style="stroke: none; stroke-width: 1; stroke-dasharray: none; stroke-linecap: butt; stroke-dashoffset: 0; stroke-linejoin: miter; stroke-miterlimit: 4; fill: rgb(63,61,86); fill-rule: nonzero; opacity: 1;"  transform=" translate(-376.09, -410.73)" d="M 445.45 506 H 306.72143 A 7.53 7.53 0 0 1 299.2 498.47857 v -175.5 a 7.53 7.53 0 0 1 7.52143 -7.52143 H 445.45 a 7.53005 7.53005 0 0 1 7.52143 7.52143 v 175.5 A 7.53005 7.53005 0 0 1 445.45 506 Z M 306.72143 317.12857 a 5.85658 5.85658 0 0 0 -5.85 5.85 v 175.5 a 5.85658 5.85658 0 0 0 5.85 5.85 H 445.45 a 5.85658 5.85658 0 0 0 5.85 -5.85 v -175.5 a 5.85658 5.85658 0 0 0 -5.85 -5.85 Z" stroke-linecap="round" />
</g>
		<g transform="matrix(1 0 0 1 -197.44 -96.45)"  >
<path style="stroke: none; stroke-width: 1; stroke-dasharray: none; stroke-linecap: butt; stroke-dashoffset: 0; stroke-linejoin: miter; stroke-miterlimit: 4; fill: rgb(63,61,86); fill-rule: nonzero; opacity: 1;"  transform=" translate(-402.56, -353.55)" d="M 423.44834 356.89277 H 381.66263 a 3.34286 3.34286 0 0 1 0 -6.68572 h 41.78571 a 3.34286 3.34286 0 1 1 0 6.68572 Z" stroke-linecap="round" />
</g>
		<g transform="matrix(1 0 0 1 -197.44 -78.9)"  >
<path style="stroke: none; stroke-width: 1; stroke-dasharray: none; stroke-linecap: butt; stroke-dashoffset: 0; stroke-linejoin: miter; stroke-miterlimit: 4; fill: rgb(63,61,86); fill-rule: nonzero; opacity: 1;"  transform=" translate(-402.56, -371.1)" d="M 423.44834 374.44277 H 381.66263 a 3.34286 3.34286 0 0 1 0 -6.68572 h 41.78571 a 3.34286 3.34286 0 1 1 0 6.68572 Z" stroke-linecap="round" />
</g>
		<g transform="matrix(1 0 0 1 -255.05 -87.34)"  >
<path style="stroke: none; stroke-width: 1; stroke-dasharray: none; stroke-linecap: butt; stroke-dashoffset: 0; stroke-linejoin: miter; stroke-miterlimit: 4; fill: rgb(108,99,255); fill-rule: nonzero; opacity: 1;"  transform=" translate(-344.95, -362.66)" d="M 360.22223 384.43578 h -30.537 a 3.76489 3.76489 0 0 1 -3.76072 -3.76071 V 344.63938 a 3.7649 3.7649 0 0 1 3.76072 -3.76072 h 30.537 a 3.76489 3.76489 0 0 1 3.76071 3.76072 v 36.03569 A 3.76488 3.76488 0 0 1 360.22223 384.43578 Z" stroke-linecap="round" />
</g>
		<g transform="matrix(1 0 0 1 -224.06 -42.97)"  >
<path style="stroke: none; stroke-width: 1; stroke-dasharray: none; stroke-linecap: butt; stroke-dashoffset: 0; stroke-linejoin: miter; stroke-miterlimit: 4; fill: rgb(204,204,204); fill-rule: nonzero; opacity: 1;"  transform=" translate(-375.94, -407.04)" d="M 423.1588 410.37848 H 328.72309 a 3.34286 3.34286 0 1 1 0 -6.68571 H 423.1588 a 3.34286 3.34286 0 1 1 0 6.68571 Z" stroke-linecap="round" />
</g>
		<g transform="matrix(1 0 0 1 -224.06 -25.42)"  >
<path style="stroke: none; stroke-width: 1; stroke-dasharray: none; stroke-linecap: butt; stroke-dashoffset: 0; stroke-linejoin: miter; stroke-miterlimit: 4; fill: rgb(204,204,204); fill-rule: nonzero; opacity: 1;"  transform=" translate(-375.94, -424.59)" d="M 423.1588 427.92848 H 328.72309 a 3.34286 3.34286 0 1 1 0 -6.68571 H 423.1588 a 3.34286 3.34286 0 1 1 0 6.68571 Z" stroke-linecap="round" />
</g>
		<g transform="matrix(1 0 0 1 -224.06 -7.87)"  >
<path style="stroke: none; stroke-width: 1; stroke-dasharray: none; stroke-linecap: butt; stroke-dashoffset: 0; stroke-linejoin: miter; stroke-miterlimit: 4; fill: rgb(204,204,204); fill-rule: nonzero; opacity: 1;"  transform=" translate(-375.94, -442.14)" d="M 423.1588 445.47848 H 328.72309 a 3.34286 3.34286 0 1 1 0 -6.68571 H 423.1588 a 3.34286 3.34286 0 1 1 0 6.68571 Z" stroke-linecap="round" />
</g>
		<g transform="matrix(1 0 0 1 -224.06 9.68)"  >
<path style="stroke: none; stroke-width: 1; stroke-dasharray: none; stroke-linecap: butt; stroke-dashoffset: 0; stroke-linejoin: miter; stroke-miterlimit: 4; fill: rgb(204,204,204); fill-rule: nonzero; opacity: 1;"  transform=" translate(-375.94, -459.69)" d="M 423.1588 463.02848 H 328.72309 a 3.34286 3.34286 0 1 1 0 -6.68571 H 423.1588 a 3.34286 3.34286 0 1 1 0 6.68571 Z" stroke-linecap="round" />
</g>
		<g transform="matrix(1 0 0 1 -224.06 27.23)"  >
<path style="stroke: none; stroke-width: 1; stroke-dasharray: none; stroke-linecap: butt; stroke-dashoffset: 0; stroke-linejoin: miter; stroke-miterlimit: 4; fill: rgb(204,204,204); fill-rule: nonzero; opacity: 1;"  transform=" translate(-375.94, -477.24)" d="M 423.1588 480.57848 H 328.72309 a 3.34286 3.34286 0 1 1 0 -6.68571 H 423.1588 a 3.34286 3.34286 0 1 1 0 6.68571 Z" stroke-linecap="round" />
</g>
		<g transform="matrix(1 0 0 1 -83.07 139.7)"  >
<path style="stroke: none; stroke-width: 1; stroke-dasharray: none; stroke-linecap: butt; stroke-dashoffset: 0; stroke-linejoin: miter; stroke-miterlimit: 4; fill: rgb(230,230,230); fill-rule: nonzero; opacity: 1;"  transform=" translate(-516.92, -589.7)" d="M 497.89518 607.71863 V 571.68294 a 3.76489 3.76489 0 0 1 3.76071 -3.76071 h 30.537 a 3.76489 3.76489 0 0 1 3.76071 3.76071 v 36.03569 a 3.7649 3.7649 0 0 1 -3.76071 3.76072 h -30.537 A 3.7649 3.7649 0 0 1 497.89518 607.71863 Z" stroke-linecap="round" />
</g>
		<g transform="matrix(1 0 0 1 -72.07 127.7)"  >
<path style="stroke: none; stroke-width: 1; stroke-dasharray: none; stroke-linecap: butt; stroke-dashoffset: 0; stroke-linejoin: miter; stroke-miterlimit: 4; fill: rgb(108,99,255); fill-rule: nonzero; opacity: 1;"  transform=" translate(-527.92, -577.7)" d="M 508.89518 595.71863 V 559.68294 a 3.76489 3.76489 0 0 1 3.76071 -3.76071 h 30.537 a 3.76489 3.76489 0 0 1 3.76071 3.76071 v 36.03569 a 3.7649 3.7649 0 0 1 -3.76071 3.76072 h -30.537 A 3.7649 3.7649 0 0 1 508.89518 595.71863 Z" stroke-linecap="round" />
</g>
		<g transform="matrix(1 0 0 1 46.72 93.37)"  >
<path style="stroke: none; stroke-width: 1; stroke-dasharray: none; stroke-linecap: butt; stroke-dashoffset: 0; stroke-linejoin: miter; stroke-miterlimit: 4; fill: rgb(160,97,106); fill-rule: nonzero; opacity: 1;"  transform=" translate(-646.72, -543.37)" d="M 645.78429 584.18843 a 9.07776 9.07776 0 0 1 -2.39821 -13.71145 l -9.4656 -69.18787 l 19.71756 0.9678 l 3.09564 67.48557 a 9.12692 9.12692 0 0 1 -10.94939 14.446 Z" stroke-linecap="round" />
</g>
		<g transform="matrix(1 0 0 1 36.29 32.26)"  >
<path style="stroke: none; stroke-width: 1; stroke-dasharray: none; stroke-linecap: butt; stroke-dashoffset: 0; stroke-linejoin: miter; stroke-miterlimit: 4; fill: rgb(204,204,204); fill-rule: nonzero; opacity: 1;"  transform=" translate(-636.29, -482.26)" d="M 656.34418 503.17871 a 3.70494 3.70494 0 0 1 -1.5051 1.06441 l -17.71963 6.76294 a 3.72283 3.72283 0 0 1 -4.729 -1.96465 l -15.69629 -35.27523 a 14.73962 14.73962 0 0 1 -0.7212 -10.43132 a 14.33679 14.33679 0 0 1 10.91159 -9.78216 a 13.67275 13.67275 0 0 1 5.89 0.08316 a 14.27981 14.27981 0 0 1 10.26305 8.92147 l 13.956 36.89 A 3.73032 3.73032 0 0 1 656.34418 503.17871 Z" stroke-linecap="round" />
</g>
		<g transform="matrix(1 0 0 1 -44.35 279.31)"  >
<polygon style="stroke: none; stroke-width: 1; stroke-dasharray: none; stroke-linecap: butt; stroke-dashoffset: 0; stroke-linejoin: miter; stroke-miterlimit: 4; fill: rgb(160,97,106); fill-rule: nonzero; opacity: 1;"  points="8.35,23.76 -3.91,23.76 -8.35,-23.76 8.35,-23.53 8.35,23.76 " />
</g>
		<g transform="matrix(1 0 0 1 -52.63 307)"  >
<path style="stroke: none; stroke-width: 1; stroke-dasharray: none; stroke-linecap: butt; stroke-dashoffset: 0; stroke-linejoin: miter; stroke-miterlimit: 4; fill: rgb(47,46,65); fill-rule: nonzero; opacity: 1;"  transform=" translate(-248.17, -622)" d="M 243.79024 614.55666 h 23.64387 a 0 0 0 0 1 0 0 v 14.88687 a 0 0 0 0 1 0 0 H 228.90338 a 0 0 0 0 1 0 0 v 0 A 14.88686 14.88686 0 0 1 243.79024 614.55666 Z" stroke-linecap="round" />
</g>
		<g transform="matrix(1 0 0 1 11.96 279.41)"  >
<polygon style="stroke: none; stroke-width: 1; stroke-dasharray: none; stroke-linecap: butt; stroke-dashoffset: 0; stroke-linejoin: miter; stroke-miterlimit: 4; fill: rgb(160,97,106); fill-rule: nonzero; opacity: 1;"  points="9.05,23.64 -3.21,23.64 -9.05,-23.64 9.05,-23.64 9.05,23.64 " />
</g>
		<g transform="matrix(1 0 0 1 4.37 307)"  >
<path style="stroke: none; stroke-width: 1; stroke-dasharray: none; stroke-linecap: butt; stroke-dashoffset: 0; stroke-linejoin: miter; stroke-miterlimit: 4; fill: rgb(47,46,65); fill-rule: nonzero; opacity: 1;"  transform=" translate(-305.17, -622)" d="M 300.79024 614.55666 h 23.64387 a 0 0 0 0 1 0 0 v 14.88687 a 0 0 0 0 1 0 0 H 285.90338 a 0 0 0 0 1 0 0 v 0 A 14.88686 14.88686 0 0 1 300.79024 614.55666 Z" stroke-linecap="round" />
</g>
		<g transform="matrix(1 0 0 1 -13.03 198.33)"  >
<path style="stroke: none; stroke-width: 1; stroke-dasharray: none; stroke-linecap: butt; stroke-dashoffset: 0; stroke-linejoin: miter; stroke-miterlimit: 4; fill: rgb(47,46,65); fill-rule: nonzero; opacity: 1;"  transform=" translate(-586.96, -648.33)" d="M 622.54889 736.23552 l -19.25513 -1.42578 a 4.50578 4.50578 0 0 1 -4.16235 -4.27051 L 594.838 641.80876 a 3.50008 3.50008 0 0 0 -6.92481 -0.5332 L 570.002 728.68278 a 4.50575 4.50575 0 0 1 -4.76709 3.582 l -17.40576 -1.39257 a 4.4995 4.4995 0 0 1 -4.1189 -4.93262 L 559.858 564.46306 a 4.49952 4.49952 0 0 1 5.43359 -3.94922 l 61.406 13.34863 a 4.511 4.511 0 0 1 3.543 4.48145 L 627.38067 731.8322 a 4.5022 4.5022 0 0 1 -4.489 4.416 C 622.77789 736.24821 622.66363 736.24333 622.54889 736.23552 Z" stroke-linecap="round" />
</g>
		<g transform="matrix(1 0 0 1 5.7 -45.11)"  >
<circle style="stroke: none; stroke-width: 1; stroke-dasharray: none; stroke-linecap: butt; stroke-dashoffset: 0; stroke-linejoin: miter; stroke-miterlimit: 4; fill: rgb(160,97,106); fill-rule: nonzero; opacity: 1;"  cx="0" cy="0" r="24.56103" />
</g>
		<g transform="matrix(1 0 0 1 1.5 62.86)"  >
<path style="stroke: none; stroke-width: 1; stroke-dasharray: none; stroke-linecap: butt; stroke-dashoffset: 0; stroke-linejoin: miter; stroke-miterlimit: 4; fill: rgb(204,204,204); fill-rule: nonzero; opacity: 1;"  transform=" translate(-601.49, -512.86)" d="M 567.59552 576.9152 a 21.96161 21.96161 0 0 1 -7.2937 -16.86621 c 0 -35.30078 30.55566 -114.168 31.51367 -116.6289 c 0.0935 -0.59278 0.89966 -0.84864 5.12939 -3.70606 c 4.23242 -2.85937 10.335 -3.29883 18.13941 -1.30566 a 4.47911 4.47911 0 0 1 3.25 3.31836 l 1.4519 2.09765 a 3.49144 3.49144 0 0 0 2.02881 2.40625 c 6.29346 2.65137 26.29809 14.87793 19.48144 60.89161 c -6.33227 42.74316 -8.90185 67.88086 -9.71264 76.70507 a 4.49122 4.49122 0 0 1 -4.07154 4.06543 c -3.08569 0.27637 -8.38183 0.64356 -14.68945 0.64356 C 598.20172 588.5363 578.14654 586.56364 567.59552 576.9152 Z" stroke-linecap="round" />
</g>
		<g transform="matrix(1 0 0 1 -36.13 78.7)"  >
<path style="stroke: none; stroke-width: 1; stroke-dasharray: none; stroke-linecap: butt; stroke-dashoffset: 0; stroke-linejoin: miter; stroke-miterlimit: 4; fill: rgb(160,97,106); fill-rule: nonzero; opacity: 1;"  transform=" translate(-563.87, -528.7)" d="M 538.24736 563.83729 a 9.07771 9.07771 0 0 1 5.649 -12.72182 L 574.58944 488.39 l 15.83345 11.79069 l -35.034 57.76251 a 9.12692 9.12692 0 0 1 -17.14158 5.89414 Z" stroke-linecap="round" />
</g>
		<g transform="matrix(1 0 0 1 -13.47 23.16)"  >
<path style="stroke: none; stroke-width: 1; stroke-dasharray: none; stroke-linecap: butt; stroke-dashoffset: 0; stroke-linejoin: miter; stroke-miterlimit: 4; fill: rgb(204,204,204); fill-rule: nonzero; opacity: 1;"  transform=" translate(-586.53, -473.16)" d="M 592.15633 502.454 a 3.7049 3.7049 0 0 1 -1.8429 0.04517 l -18.48219 -4.25807 a 3.72282 3.72282 0 0 1 -2.832 -4.26646 l 6.62251 -38.03759 a 14.73969 14.73969 0 0 1 5.21371 -9.06366 a 14.33681 14.33681 0 0 1 14.51142 -2.04255 a 13.67258 13.67258 0 0 1 4.84448 3.35107 a 14.27983 14.27983 0 0 1 3.55082 13.12686 l -8.96734 38.40871 A 3.7303 3.7303 0 0 1 592.15633 502.454 Z" stroke-linecap="round" />
</g>
		<g transform="matrix(1 0 0 1 3.7 -47.86)"  >
<path style="stroke: none; stroke-width: 1; stroke-dasharray: none; stroke-linecap: butt; stroke-dashoffset: 0; stroke-linejoin: miter; stroke-miterlimit: 4; fill: rgb(47,46,65); fill-rule: nonzero; opacity: 1;"  transform=" translate(-603.7, -402.14)" d="M 599.95291 427.0789 a 10.58407 10.58407 0 0 1 -2.83917 -9.3866 c 0.85636 -4.47943 1.35942 -7.41039 1.45471 -8.47667 h 0 c 0.32608 -3.64766 -3.36133 -6.60057 -7.01009 -7.07047 c -0.1414 -0.01845 -0.25976 -0.03074 -0.35857 -0.03865 c 0.09288 0.09135 0.19279 0.18445 0.2804 0.267 c 0.693 0.65084 1.55573 1.46153 1.35064 2.29769 c -0.12362 0.50327 -0.58364 0.86075 -1.40663 1.09087 c -5.70622 1.59678 -10.1009 0.13087 -13.83068 -4.61645 a 11.026 11.026 0 0 1 -2.10511 -4.598 c -1.33593 -6.5549 2.2239 -12.14277 5.4458 -15.67537 c 2.6567 -2.91295 6.96354 -6.44907 12.39419 -6.75209 c 4.2234 -0.23583 9.24563 2.19448 10.74888 6.57423 a 8.15937 8.15937 0 0 1 6.36123 -3.58618 a 14.662 14.662 0 0 1 8.15827 2.26914 c 11.90914 6.8219 17.02732 23.07258 11.17684 35.48763 c -3.68038 7.80914 -11.65421 13.62273 -20.80981 15.17209 a 10.39312 10.39312 0 0 1 -1.7349 0.14668 A 10.11515 10.11515 0 0 1 599.95291 427.0789 Z" stroke-linecap="round" />
</g>
		<g transform="matrix(1 0 0 1 -17.72 314)"  >
<path style="stroke: none; stroke-width: 1; stroke-dasharray: none; stroke-linecap: butt; stroke-dashoffset: 0; stroke-linejoin: miter; stroke-miterlimit: 4; fill: rgb(63,61,86); fill-rule: nonzero; opacity: 1;"  transform=" translate(-582.28, -764)" d="M 484.77874 765 h 195 a 1 1 0 0 0 0 -2 h -195 a 1 1 0 1 0 0 2 Z" stroke-linecap="round" />
</g>
</g>
</g>
<g transform="matrix(1 0 0 1 6.5 177)"  >
<path style="stroke: rgb(0,0,0); stroke-width: 1; stroke-dasharray: none; stroke-linecap: round; stroke-dashoffset: 0; stroke-linejoin: round; stroke-miterlimit: 10; fill: none; fill-rule: nonzero; opacity: 1;"  transform=" translate(-152.5, -215)" d="M 152.499 215 L 152.501 215" stroke-linecap="round" />
</g>
</svg>